<svg viewBox="0 0 40 40" xmlns="http://www.w3.org/2000/svg"><path fill-rule="evenodd" clip-rule="evenodd" d="M29.458 20.761a1 1 0 0 1-.076 1.412c-.152.136-3.778 3.335-9.2 3.335-5.423 0-9.049-3.199-9.201-3.335a1 1 0 0 1 1.334-1.49c.045.04 3.244 2.825 7.867 2.825 4.664 0 7.833-2.795 7.864-2.823a1 1 0 0 1 1.412.076zM35 36.71c0 .466-.262 1.048-.418 1.172a.788.788 0 0 1-.794.022l-9.791-5.637-.463-.267H7.25C6.009 32 5 30.975 5 29.715V4.286C5 3.026 6.009 2 7.25 2h25.5C33.99 2 35 3.026 35 4.286V36.71zM32.75 0H7.25C4.906 0 3 1.923 3 4.286v25.429C3 32.078 4.906 34 7.25 34H23l9.79 5.637c.433.243.905.363 1.376.363.495 0 .989-.133 1.437-.399.874-.518 1.397-1.868 1.397-2.891V4.286C37 1.923 35.093 0 32.75 0z"/></svg>